<svg version="1.1" xmlns="http://www.w3.org/2000/svg" xmlns:xlink="http://www.w3.org/1999/xlink" width="500" height="500"><defs><linearGradient x1="50" y1="60.32175" x2="50" y2="439.67825" gradientUnits="userSpaceOnUse" id="color-1"><stop offset="0" stop-color="#2d2e31"></stop><stop offset="1" stop-color="#312d30"></stop></linearGradient></defs><g data-paper-data="{&quot;description&quot;:&quot;Logo for ADDOS\n==============\n\nThis logo was generated by MarkMaker at http://emblemmatic.org/markmaker/ and may be composed of elements designed by others.\n\nThe font is Yantramanav Black designed by Erin McLaughlin and released under the OFL license via Google Fonts: https://www.google.com/fonts/specimen/Yantramanav. The font includes this copyright statement: Copyright 2014, Erin McLaughlin (hello@erinmclaughlin.com). Copyright 2010, Google Inc. All Rights Reserved.\n\nMarkMaker uses semantic data from the Princeton University WordNet database http://wordnet.princeton.edu and font descriptions from Google Fonts https://www.google.com/fonts.&quot;}" fill="url(#color-1)" fill-rule="nonzero" stroke="none" stroke-width="1" stroke-linecap="butt" stroke-linejoin="miter" stroke-miterlimit="10" stroke-dasharray="" stroke-dashoffset="0" font-family="none" font-weight="none" font-size="none" text-anchor="none" style="mix-blend-mode: normal"><g data-paper-data="{&quot;elementType&quot;:&quot;logo&quot;}"><g data-paper-data="{&quot;elementType&quot;:&quot;text&quot;}"><g data-paper-data="{&quot;baseline&quot;:64.794921875,&quot;elementType&quot;:&quot;row&quot;}"><g data-paper-data="{&quot;baselineProportion&quot;:0.9844213649851632,&quot;fontSize&quot;:100,&quot;baseline&quot;:64.794921875,&quot;elementType&quot;:&quot;word&quot;}"><path d="M102.16428,438.41621l-4.50728,-15.32476h-24.8201l-4.44718,15.32476h-18.38971l25.42107,-78.72719h19.65175l25.48117,78.72719h-18.38971M85.0967,380.84319l-8.1732,28.18554h16.70699l-8.2333,-28.18554z" data-paper-data="{&quot;elementType&quot;:&quot;letter&quot;,&quot;baseline&quot;:63.96484375,&quot;baselineProportion&quot;:1,&quot;fontSize&quot;:100}"></path><path d="M165.39988,438.41621h-28.42592v-78.72719h28.42592c9.37515,0 17.15772,3.02489 23.34772,9.07466c6.19,6.04977 9.285,13.78227 9.285,23.19748v14.18291c0,9.41521 -3.095,17.1477 -9.285,23.19748c-6.19,6.04977 -13.97257,9.07466 -23.34772,9.07466zM164.13784,373.75174h-8.83427v50.60175h8.83427c4.84783,0 8.65398,-1.65267 11.41845,-4.95801c2.76447,-3.30534 4.1467,-7.72248 4.1467,-13.25141v-14.30311c0,-5.52893 -1.38223,-9.92604 -4.1467,-13.19131c-2.76447,-3.26528 -6.57062,-4.89791 -11.41845,-4.89791" data-paper-data="{&quot;elementType&quot;:&quot;letter&quot;,&quot;baseline&quot;:63.96484375,&quot;baselineProportion&quot;:1,&quot;fontSize&quot;:100}"></path><path d="M248.58772,438.41621h-28.42592v-78.72719h28.42592c9.37515,0 17.15772,3.02489 23.34772,9.07466c6.19,6.04977 9.285,13.78227 9.285,23.19748v14.18291c0,9.41521 -3.095,17.1477 -9.285,23.19748c-6.19,6.04977 -13.97257,9.07466 -23.34772,9.07466zM247.32568,373.75174h-8.83427v50.60175h8.83427c4.84783,0 8.65398,-1.65267 11.41845,-4.95801c2.76447,-3.30534 4.1467,-7.72248 4.1467,-13.25141v-14.30311c0,-5.52893 -1.38223,-9.92604 -4.1467,-13.19131c-2.76447,-3.26528 -6.57062,-4.89791 -11.41845,-4.89791" data-paper-data="{&quot;elementType&quot;:&quot;letter&quot;,&quot;baseline&quot;:63.96484375,&quot;baselineProportion&quot;:1,&quot;fontSize&quot;:100}"></path><path d="M368.43478,392.08135v14.18291c0,9.77579 -3.07497,17.78874 -9.2249,24.03884c-6.14994,6.2501 -14.19293,9.37515 -24.12898,9.37515c-9.93605,0 -18.0091,-3.12505 -24.21913,-9.37515c-6.21003,-6.2501 -9.31505,-14.26304 -9.31505,-24.03884v-14.18291c0,-6.41036 1.39225,-12.14963 4.17675,-17.21782c2.7845,-5.06819 6.73087,-9.0346 11.83913,-11.89922c5.10825,-2.86463 10.92765,-4.29694 17.45821,-4.29694c9.89599,0 17.93898,3.12505 24.12898,9.37515c6.19,6.2501 9.285,14.26304 9.285,24.03884zM350.22536,406.26426v-14.30311c0,-5.76932 -1.34217,-10.41683 -4.02651,-13.94253c-2.68434,-3.5257 -6.43039,-5.28854 -11.23816,-5.28854c-4.80777,0 -8.5438,1.75283 -11.20811,5.2585c-2.6643,3.50566 -3.99646,8.16319 -3.99646,13.97257v14.30311c0,5.84945 1.35218,10.53702 4.05655,14.06272c2.70437,3.5257 6.45042,5.28854 11.23816,5.28854c4.78774,0 8.51375,-1.76285 11.17806,-5.28854c2.6643,-3.5257 3.99646,-8.21327 3.99646,-14.06272" data-paper-data="{&quot;elementType&quot;:&quot;letter&quot;,&quot;baseline&quot;:64.794921875,&quot;baselineProportion&quot;:0.9844213649851632,&quot;fontSize&quot;:100}"></path><path d="M420.43223,425.85592v0.0601c3.72602,0 6.53055,-0.73118 8.41359,-2.19354c1.88304,-1.46236 2.82456,-3.51568 2.82456,-6.15995c0,-2.64427 -0.87141,-4.71762 -2.61422,-6.22005c-1.74282,-1.50243 -5.0782,-3.1551 -10.00617,-4.95801c-10.65722,-3.32537 -18.20942,-6.80099 -22.6566,-10.42685c-4.44718,-3.62586 -6.67078,-8.71408 -6.67078,-15.26466c0,-6.55058 2.82456,-11.85916 8.47369,-15.92573c5.64913,-4.06657 12.91086,-6.09985 21.7852,-6.09985c8.87434,0 16.07597,2.24362 21.6049,6.73087c5.52893,4.48725 8.19324,10.25657 7.99291,17.30796l-0.12019,0.36058h-17.72864c0,-3.24524 -1.07173,-5.82942 -3.21519,-7.75252c-2.14346,-1.92311 -5.04816,-2.88466 -8.71408,-2.88466c-3.66592,0 -6.5606,0.80129 -8.68403,2.40388c-2.12343,1.60259 -3.18515,3.56576 -3.18515,5.88952c0,2.32375 1.00162,4.18676 3.00485,5.58903c2.00324,1.40227 6.00971,3.18515 12.01942,5.34864c9.37515,2.76447 16.22622,6.10987 20.55321,10.03621c4.32699,3.92634 6.49049,9.27498 6.49049,16.04592c0,6.77094 -2.67432,12.11958 -8.02296,16.04592c-5.34864,3.92634 -12.53024,5.88952 -21.54481,5.88952c-6.08984,0 -11.59874,-0.97157 -16.5267,-2.91471c-4.92796,-1.94314 -8.88435,-4.92796 -11.86918,-8.95447c-2.98482,-4.02651 -4.41714,-8.78419 -4.29694,-14.27306l0.0601,-0.30049h17.84884c0,4.44718 1.19193,7.66238 3.57578,9.64558c2.38385,1.9832 6.11989,2.97481 11.20811,2.97481z" data-paper-data="{&quot;elementType&quot;:&quot;letter&quot;,&quot;baseline&quot;:64.794921875,&quot;baselineProportion&quot;:0.9844213649851632,&quot;fontSize&quot;:100}"></path></g></g></g></g><g data-paper-data="{&quot;elementType&quot;:&quot;emblem&quot;}"><g data-paper-data="{&quot;baselineProportion&quot;:1,&quot;fontSize&quot;:100,&quot;baseline&quot;:63.96484375,&quot;elementType&quot;:&quot;word&quot;}"><path d="M246.9067,297.12794l-13.55761,-46.09586h-74.65722l-13.37684,46.09586h-55.31503l76.4649,-236.80619h59.11116l76.64567,236.80619h-55.31503M195.56856,123.95212l-24.58446,84.78023h50.25353l-24.76523,-84.78023z" data-paper-data="{&quot;elementType&quot;:&quot;letter&quot;,&quot;baseline&quot;:63.96484375,&quot;baselineProportion&quot;:1,&quot;fontSize&quot;:100}"></path><path d="M410,250.85131v46.27663h-54.9535v-46.27663z" data-paper-data="{&quot;elementType&quot;:&quot;letter&quot;,&quot;baseline&quot;:12.5,&quot;baselineProportion&quot;:1,&quot;fontSize&quot;:100}"></path></g></g></g></svg>